<?xml version="1.0" encoding="UTF-8"?>
<svg xmlns="http://www.w3.org/2000/svg" xmlns:xlink="http://www.w3.org/1999/xlink" width="40px" height="40px" viewBox="0 0 40 40" version="1.1">
<g id="surface1">
<path style=" stroke:none;fill-rule:evenodd;fill:rgb(100%,76.862745%,38.039216%);fill-opacity:1;" d="M 16.269531 2.5 C 13.523438 2.5 11.296875 4.65625 11.296875 7.316406 L 11.296875 10.648438 L 19.90625 10.648438 L 19.90625 11.574219 L 7.472656 11.574219 C 4.726562 11.574219 2.5 13.730469 2.5 16.390625 L 2.5 23.609375 C 2.5 26.269531 4.726562 28.425781 7.472656 28.425781 L 10.339844 28.425781 L 10.339844 24.351562 C 10.339844 21.691406 12.566406 19.535156 15.3125 19.535156 L 24.496094 19.535156 C 26.820312 19.535156 28.703125 17.714844 28.703125 15.464844 L 28.703125 7.316406 C 28.703125 4.65625 26.476562 2.5 23.730469 2.5 Z M 15.121094 8.425781 C 16.074219 8.425781 16.84375 7.679688 16.84375 6.757812 C 16.84375 5.839844 16.074219 5.09375 15.121094 5.09375 C 14.171875 5.09375 13.402344 5.839844 13.402344 6.757812 C 13.402344 7.679688 14.171875 8.425781 15.121094 8.425781 Z M 15.121094 8.425781 "/>
<path style=" stroke:none;fill-rule:evenodd;fill:rgb(100%,76.862745%,38.039216%);fill-opacity:1;" d="M 23.730469 37.5 C 26.476562 37.5 28.703125 35.34375 28.703125 32.683594 L 28.703125 29.351562 L 20.09375 29.351562 L 20.09375 28.425781 L 32.527344 28.425781 C 35.273438 28.425781 37.5 26.269531 37.5 23.609375 L 37.5 16.390625 C 37.5 13.730469 35.273438 11.574219 32.527344 11.574219 L 29.660156 11.574219 L 29.660156 15.648438 C 29.660156 18.308594 27.433594 20.464844 24.6875 20.464844 L 15.503906 20.464844 C 13.179688 20.464844 11.296875 22.285156 11.296875 24.535156 L 11.296875 32.683594 C 11.296875 35.34375 13.523438 37.5 16.269531 37.5 Z M 24.875 31.574219 C 23.925781 31.574219 23.15625 32.320312 23.15625 33.242188 C 23.15625 34.160156 23.925781 34.90625 24.875 34.90625 C 25.828125 34.90625 26.597656 34.160156 26.597656 33.242188 C 26.597656 32.320312 25.828125 31.574219 24.875 31.574219 Z M 24.875 31.574219 "/>
</g>
</svg>
